<svg xmlns="http://www.w3.org/2000/svg" viewBox="0 0 286 85"><defs><style>.a{fill:#ff2a2a;}</style></defs><title>name sagu</title><path class="a" d="M64.18,55.28C61.75,66.61,49.81,76.44,33.89,76.44c-10.76,0-21.68-3.66-23.57-14a4.07,4.07,0,0,1,3-4.4l11.19-3.27A2.75,2.75,0,0,1,28,56.21c1,2.34,3.89,4.12,8.48,4.12,5.05,0,7.71-2.34,8.23-4.77.85-3.93-3.94-4.31-10.15-5.9C22.52,46.57,16.42,41.42,19,29.44,21.69,16.9,34,8.56,48.38,8.56c10.2,0,18.28,4.69,20,13.67.35,1.87-1.22,3.93-3.31,4.5L54.14,29.25a2.8,2.8,0,0,1-3.28-1.31c-.74-1.78-2.52-3.09-5.79-3.09-3.84,0-6.9,1.6-7.54,4.59-.81,3.75,4.8,4.21,9.56,5.62C62.13,39.55,66.41,44.89,64.18,55.28Z"/><path class="a" d="M108.38,72.22l-.45-7.49h-20l-3.67,7.49a5.36,5.36,0,0,1-4.69,3.09H66.33c-2.24,0-3.35-2.24-2.14-4.4L95.88,13.15a6.64,6.64,0,0,1,5.5-3.37H118a3.9,3.9,0,0,1,4.06,3.37L129,70.91a4.21,4.21,0,0,1-4.13,4.4h-13.1A3.15,3.15,0,0,1,108.38,72.22ZM107,51,105.67,28.6,94.69,51Z"/><path class="a" d="M174.36,37.4h24.72a3.25,3.25,0,0,1,3.23,4.12l-6.53,30.42a4.38,4.38,0,0,1-4,3.37h-2.63a2.61,2.61,0,0,1-2.73-2.53l-.29-5.61a31.22,31.22,0,0,1-22.68,9.27c-19.66,0-30.56-14.61-26.42-33.89s21.34-34,41-34c10.39,0,18.31,4.12,22.87,10.77,1,1.5.21,3.84-1.72,5l-12.18,7a3.09,3.09,0,0,1-3.95-.37c-2-2.25-4.94-3.56-9.06-3.56-9,0-15.73,6.55-17.58,15.17s1.89,16,10.88,16c6.55,0,11.5-2.52,14.66-7.67H171.47a3.21,3.21,0,0,1-3.24-4.12l1.13-5.24A5.43,5.43,0,0,1,174.36,37.4Z"/><path class="a" d="M272.41,9.78a3.25,3.25,0,0,1,3.24,4.12l-7.47,34.73C264,68.1,251,76.44,233.19,76.44S206,68.1,210.14,48.63L217.6,13.9a5.45,5.45,0,0,1,5-4.12h11A3.26,3.26,0,0,1,237,13.9L229.88,47c-1.56,7.3,1.34,10.76,7.33,10.76s10.39-3.46,12-10.76l7.1-33.05a5.44,5.44,0,0,1,5.09-4.12Z"/></svg>