<svg xmlns="http://www.w3.org/2000/svg" viewBox="0 0 471 474">
    <defs>
        <style>.a {
            fill: #ff2a2a;
        }

        .b {
            fill: #fff;
        }</style>
    </defs>
    <title>sagu</title>
    <path class="a"
          d="M156.68,373.43c-2.43,11.33-14.37,21.16-30.29,21.16-10.76,0-21.68-3.66-23.57-14a4.07,4.07,0,0,1,3-4.4L117,372.87a2.75,2.75,0,0,1,3.51,1.49c1,2.34,3.89,4.12,8.48,4.12,5.05,0,7.71-2.34,8.23-4.77.85-3.93-3.94-4.31-10.15-5.9-12.07-3.09-18.17-8.24-15.6-20.22,2.7-12.54,15-20.87,29.39-20.87,10.2,0,18.28,4.68,20,13.66.35,1.88-1.22,3.93-3.31,4.5l-10.93,2.52a2.8,2.8,0,0,1-3.28-1.31c-.74-1.78-2.52-3.09-5.79-3.09-3.84,0-6.9,1.6-7.54,4.59-.81,3.75,4.8,4.21,9.56,5.62C154.63,357.7,158.91,363,156.68,373.43Z"/>
    <path class="a"
          d="M200.88,390.37l-.45-7.49h-20l-3.67,7.49a5.36,5.36,0,0,1-4.69,3.09h-13.2c-2.24,0-3.35-2.24-2.14-4.4l31.69-57.76a6.64,6.64,0,0,1,5.5-3.37h16.66a3.9,3.9,0,0,1,4.06,3.37l6.87,57.76a4.21,4.21,0,0,1-4.13,4.4h-13.1A3.15,3.15,0,0,1,200.88,390.37Zm-1.34-21.25-1.37-22.37-11,22.37Z"/>
    <path class="a"
          d="M266.86,355.55h24.72a3.25,3.25,0,0,1,3.23,4.12l-6.53,30.42a4.38,4.38,0,0,1-4,3.37h-2.63a2.61,2.61,0,0,1-2.73-2.53l-.29-5.61A31.22,31.22,0,0,1,256,394.59c-19.66,0-30.56-14.61-26.42-33.89s21.34-34,41-34c10.39,0,18.31,4.11,22.87,10.76,1,1.5.21,3.84-1.72,5l-12.18,7a3.09,3.09,0,0,1-3.95-.37c-1.95-2.25-4.94-3.56-9.06-3.56-9,0-15.73,6.55-17.58,15.17s1.89,16,10.88,16c6.55,0,11.5-2.52,14.66-7.67H264a3.21,3.21,0,0,1-3.24-4.12l1.13-5.24A5.43,5.43,0,0,1,266.86,355.55Z"/>
    <path class="a"
          d="M364.91,327.93a3.25,3.25,0,0,1,3.24,4.12l-7.47,34.73c-4.18,19.47-17.2,27.81-35,27.81s-27.23-8.34-23.05-27.81l7.46-34.73a5.45,5.45,0,0,1,5-4.12h11a3.26,3.26,0,0,1,3.33,4.12l-7.1,33.05c-1.56,7.3,1.34,10.76,7.33,10.76s10.39-3.46,12-10.76l7.1-33.05a5.44,5.44,0,0,1,5.09-4.12Z"/>
    <path class="a"
          d="M343.28,265.54c-21,19.72-49,31.93-79.11,31.93H100.62A10,10,0,0,1,90.5,286.86v0a11.24,11.24,0,0,1,11.12-10.61h58.85a13.61,13.61,0,0,0,13.42-12.74c0-.34,0-.68,0-1-.17-6.26-5.45-10.91-11.74-10.91H149a12.13,12.13,0,0,1-12.16-12.75,13.35,13.35,0,0,1,4.2-9,13.54,13.54,0,0,1,4.65-2.91,13.27,13.27,0,0,1,4.58-.83h18.84a10.77,10.77,0,0,0,7.08-2.58,13.64,13.64,0,0,0,3.31-4.37,12.94,12.94,0,0,0,1.27-5c0-.34,0-.68,0-1-.18-6.25-5.48-10.91-11.79-10.91H118.65a12.39,12.39,0,0,1-4.48-.82,12,12,0,0,1-7.74-11.93,13.6,13.6,0,0,1,8.88-11.92,12.81,12.81,0,0,1,4.56-.82h59.06a10.59,10.59,0,0,0,7.25-2.92h0a13.36,13.36,0,0,0,4.25-9c0-.34,0-.68,0-1-.16-6.24-5.49-10.9-11.81-10.9h-39a12.59,12.59,0,0,1-4.51-.83,12,12,0,0,1-7.73-11.91,13.31,13.31,0,0,1,4.21-9,13.67,13.67,0,0,1,4.71-2.92,13.14,13.14,0,0,1,4.58-.82h45.68a10.13,10.13,0,0,0,6.31-2.11,13.66,13.66,0,0,0,3.86-4.77,12.79,12.79,0,0,0,1.33-5c.4-7.13-5.52-12.78-12.75-12.78H115.52a10.1,10.1,0,0,1-10.25-10.61l.1-2.15a11.31,11.31,0,0,1,11.26-10.61H275.39c59.62,0,106.59,46,105.08,104.7C379.65,215.93,365.3,244.87,343.28,265.54Z"/>
    <circle class="a" cx="109.13" cy="239.06" r="13.45"/>
    <path class="b"
          d="M319.39,190.78c0,28.82-24.4,52.18-54.51,52.18s-52.77-22.49-50.62-50.23,26.56-51.11,54.51-52.18S319.39,162,319.39,190.78Z"/>
    <path class="a"
          d="M293.39,175.38a12.74,12.74,0,1,1-19.1-14.3,29,29,0,0,0-6.83-.58c-16.17.61-30.28,13.85-31.53,29.57s11.87,28.46,29.28,28.46,31.53-13.24,31.53-29.57A28.89,28.89,0,0,0,293.39,175.38Z"/>
</svg>
