<svg xmlns="http://www.w3.org/2000/svg" viewBox="0 0 400 270"><defs><style>.a{fill:#ff2a2a;}.b{fill:#fff;}</style></defs><title>sagu logo</title><path class="a" d="M307.78,218.64c-21,19.72-49,31.93-79.11,31.93H65.12A10,10,0,0,1,55,240v0a11.24,11.24,0,0,1,11.12-10.61H125a13.61,13.61,0,0,0,13.42-12.74c0-.34,0-.68,0-1-.17-6.26-5.45-10.92-11.74-10.92H113.45a12.1,12.1,0,0,1-12.16-12.74,13.35,13.35,0,0,1,4.2-9,13.54,13.54,0,0,1,4.65-2.91,13,13,0,0,1,4.58-.83h18.84a10.77,10.77,0,0,0,7.08-2.58,13.64,13.64,0,0,0,3.31-4.37,12.94,12.94,0,0,0,1.27-5c0-.34,0-.68,0-1-.18-6.25-5.48-10.91-11.79-10.91H83.15a12.39,12.39,0,0,1-4.48-.82,12,12,0,0,1-7.74-11.93,13.6,13.6,0,0,1,8.88-11.92,12.81,12.81,0,0,1,4.56-.82h59.06a10.59,10.59,0,0,0,7.25-2.92h0a13.36,13.36,0,0,0,4.25-9c0-.34,0-.68,0-1-.16-6.24-5.49-10.9-11.81-10.9h-39a12.39,12.39,0,0,1-4.51-.84,12,12,0,0,1-7.73-11.9,13.27,13.27,0,0,1,4.21-9,13.67,13.67,0,0,1,4.71-2.92,13.14,13.14,0,0,1,4.58-.82H151a10.13,10.13,0,0,0,6.31-2.11,13.75,13.75,0,0,0,3.86-4.77,12.79,12.79,0,0,0,1.33-5c.4-7.13-5.52-12.78-12.75-12.78H80A10.1,10.1,0,0,1,69.77,45.27l.1-2.15A11.31,11.31,0,0,1,81.13,32.51H239.89c59.62,0,106.59,46,105.08,104.7C344.15,169,329.8,198,307.78,218.64Z"/><circle class="a" cx="73.63" cy="192.16" r="13.45"/><path class="b" d="M283.89,143.88c0,28.81-24.4,52.18-54.51,52.18s-52.77-22.49-50.62-50.24,26.56-51.1,54.51-52.17S283.89,115.06,283.89,143.88Z"/><path class="a" d="M257.89,128.48a12.74,12.74,0,1,1-19.1-14.3,28.45,28.45,0,0,0-6.83-.58c-16.17.61-30.28,13.84-31.53,29.57s11.87,28.46,29.28,28.46,31.53-13.24,31.53-29.57A28.89,28.89,0,0,0,257.89,128.48Z"/></svg>